<?xml version="1.0" encoding="utf-8"?>
<!-- Generator: Adobe Illustrator 27.2.0, SVG Export Plug-In . SVG Version: 6.00 Build 0)  -->
<svg version="1.1" id="Réteg_1" xmlns="http://www.w3.org/2000/svg" xmlns:xlink="http://www.w3.org/1999/xlink" x="0px" y="0px"
	 viewBox="0 0 500 166.7" style="enable-background:new 0 0 500 166.7;" xml:space="preserve">
<g>
	<path d="M38.3,25.7h31.3v83.2h48.8v27.2H38.3V25.7z"/>
	<path d="M126.3,81c0-18,4.6-32.1,13.8-42.1c9.2-10,22-15.1,38.5-15.1c16.9,0,29.8,4.9,39,14.8s13.7,23.7,13.7,41.5
		c0,12.9-2,23.5-6,31.8c-4,8.3-9.7,14.7-17.3,19.3c-7.5,4.6-16.9,6.9-28.2,6.9c-11.4,0-20.9-2-28.4-6c-7.5-4-13.6-10.2-18.2-18.8
		C128.7,104.6,126.3,93.9,126.3,81z M157.6,81.1c0,11.1,1.9,19.2,5.7,24c3.8,4.9,9,7.3,15.5,7.3c6.7,0,11.9-2.4,15.6-7.2
		c3.7-4.8,5.5-13.3,5.5-25.7c0-10.4-1.9-18-5.8-22.8c-3.8-4.8-9.1-7.2-15.6-7.2c-6.3,0-11.4,2.4-15.2,7.3
		C159.5,61.8,157.6,69.9,157.6,81.1z"/>
	<path d="M299.1,96.1v-23h48.4v47.1c-9.3,6.9-17.4,11.6-24.6,14s-15.6,3.7-25.3,3.7c-12,0-21.8-2.2-29.4-6.7
		c-7.6-4.5-13.4-11.1-17.6-20c-4.2-8.8-6.3-19-6.3-30.4c0-12.1,2.3-22.5,6.8-31.5c4.6-8.9,11.2-15.7,20-20.3
		c6.9-3.6,16.1-5.3,27.7-5.3c11.2,0,19.6,1.1,25.1,3.3c5.5,2.2,10.2,5.6,13.8,10.3c3.7,4.6,6.4,10.5,8.3,17.7l-30.2,5.9
		c-1.2-4.2-3.4-7.4-6.3-9.6c-3-2.2-6.8-3.3-11.4-3.3c-6.9,0-12.3,2.6-16.4,7.8s-6.1,13.4-6.1,24.7c0,12,2.1,20.5,6.2,25.6
		c4.1,5.1,9.9,7.7,17.2,7.7c3.5,0,6.8-0.6,10-1.7c3.2-1.1,6.8-3,10.9-5.6V96.1H299.1z"/>
	<path d="M362.1,81c0-18,4.6-32.1,13.8-42.1c9.2-10,22-15.1,38.5-15.1c16.9,0,29.8,4.9,39,14.8S467,62.3,467,80.1
		c0,12.9-2,23.5-6,31.8c-4,8.3-9.7,14.7-17.3,19.3c-7.5,4.6-16.9,6.9-28.2,6.9c-11.4,0-20.9-2-28.4-6c-7.5-4-13.6-10.2-18.2-18.8
		C364.4,104.6,362.1,93.9,362.1,81z M393.4,81.1c0,11.1,1.9,19.2,5.7,24c3.8,4.9,9,7.3,15.5,7.3c6.7,0,11.9-2.4,15.6-7.2
		c3.7-4.8,5.5-13.3,5.5-25.7c0-10.4-1.9-18-5.8-22.8c-3.8-4.8-9.1-7.2-15.6-7.2c-6.3,0-11.4,2.4-15.2,7.3
		C395.3,61.8,393.4,69.9,393.4,81.1z"/>
</g>
</svg>
