<?xml version="1.0" encoding="utf-8"?>
<!-- Generator: Adobe Illustrator 27.2.0, SVG Export Plug-In . SVG Version: 6.00 Build 0)  -->
<svg version="1.1" id="logo-footer" xmlns="http://www.w3.org/2000/svg" xmlns:xlink="http://www.w3.org/1999/xlink" x="0px"
	 y="0px" viewBox="0 0 230 66.3" style="enable-background:new 0 0 230 66.3;" xml:space="preserve">
<style type="text/css">
	.st0{fill:#FFFFFF;}
</style>
<g>
	<path class="st0" d="M17.4,8.9h14.2v37.9h22.2v12.4H17.4V8.9z"/>
	<path class="st0" d="M57.5,34c0-8.2,2.1-14.6,6.3-19.2s10-6.9,17.5-6.9c7.7,0,13.6,2.2,17.7,6.7c4.2,4.5,6.2,10.8,6.2,18.9
		c0,5.9-0.9,10.7-2.7,14.5c-1.8,3.8-4.4,6.7-7.9,8.8C91.3,59,87,60,81.9,60c-5.2,0-9.5-0.9-12.9-2.7c-3.4-1.8-6.2-4.7-8.3-8.6
		C58.5,44.8,57.5,39.9,57.5,34z M71.7,34.1c0,5.1,0.9,8.7,2.6,10.9c1.7,2.2,4.1,3.3,7.1,3.3c3.1,0,5.4-1.1,7.1-3.3
		c1.7-2.1,2.5-6,2.5-11.6c0-4.7-0.9-8.2-2.6-10.4c-1.8-2.2-4.1-3.3-7.1-3.3c-2.9,0-5.2,1.1-6.9,3.3C72.6,25.3,71.7,29,71.7,34.1z"/>
	<path class="st0" d="M136.1,40.9V30.5h22v21.4c-4.2,3.1-7.9,5.3-11.2,6.4s-7.1,1.7-11.5,1.7c-5.5,0-9.9-1-13.4-3.1
		c-3.4-2-6.1-5.1-8-9.1s-2.8-8.6-2.8-13.9c0-5.5,1-10.3,3.1-14.3c2.1-4.1,5.1-7.1,9.1-9.2C126.5,8.8,130.7,8,136,8
		c5.1,0,8.9,0.5,11.4,1.5s4.6,2.6,6.3,4.7c1.7,2.1,2.9,4.8,3.8,8l-13.7,2.7c-0.6-1.9-1.5-3.3-2.9-4.4c-1.4-1-3.1-1.5-5.2-1.5
		c-3.1,0-5.6,1.2-7.5,3.6c-1.9,2.4-2.8,6.1-2.8,11.2c0,5.4,0.9,9.3,2.8,11.7c1.9,2.3,4.5,3.5,7.8,3.5c1.6,0,3.1-0.3,4.6-0.8
		c1.4-0.5,3.1-1.4,5-2.6v-4.7L136.1,40.9L136.1,40.9z"/>
	<path class="st0" d="M164.8,34c0-8.2,2.1-14.6,6.3-19.2s10-6.9,17.5-6.9c7.7,0,13.6,2.2,17.7,6.7c4.2,4.5,6.2,10.8,6.2,18.9
		c0,5.9-0.9,10.7-2.7,14.5s-4.4,6.7-7.9,8.8c-3.4,2.1-7.7,3.1-12.8,3.1c-5.2,0-9.5-0.9-12.9-2.7c-3.4-1.8-6.2-4.7-8.3-8.6
		C165.9,44.8,164.8,39.9,164.8,34z M179.1,34.1c0,5.1,0.9,8.7,2.6,10.9c1.7,2.2,4.1,3.3,7.1,3.3c3.1,0,5.4-1.1,7.1-3.3
		c1.7-2.2,2.5-6.1,2.5-11.7c0-4.7-0.9-8.2-2.6-10.4c-1.8-2.2-4.1-3.3-7.1-3.3c-2.9,0-5.2,1.1-6.9,3.3
		C179.9,25.3,179.1,29,179.1,34.1z"/>
</g>
</svg>
